<?xml version="1.0" encoding="UTF-8"?>
<svg id="Layer_1" data-name="Layer 1" xmlns="http://www.w3.org/2000/svg" viewBox="0 0 518.24 424.81">
  <defs>
    <style>
      .cls-1 {
        fill: #fff;
        stroke: #fff;
        stroke-miterlimit: 10;
      }
    </style>
  </defs>
  <path class="cls-1" d="m150.91,147.68c-3.42-1.88-6.92-3.63-10.24-5.67-19.27-11.8-38.08-24.25-54.55-39.85-4.22-4-8.06-8.52-11.45-13.25-5.73-7.99-5.16-15.71,1.04-23.36,4.04-4.98,9.04-8.81,14.53-12.05,14-8.27,29.27-13.15,45.1-16.07,49.13-9.05,98.67-11.67,148.47-7.87,32.68,2.49,64.75,8.41,95.53,20.15,13.5,5.15,26.82,10.72,39.23,18.2,7.57,4.56,14.3,10.19,20.06,16.92,12.99,15.18,15.15,35.38,6.23,53.48-7.09,14.4-18.75,24.19-31.68,32.79-24.77,16.47-52.2,27.07-80.48,35.54-15.98,4.78-32.21,8.74-48.42,12.7-6.38,1.56-13.02,2.11-20.11,3.21,3.16.83,5.93,1.61,8.72,2.28,21.43,5.12,41.85,12.73,60.65,24.38,5.42,3.36,10.24,7.43,14.05,12.61,7.66,10.42,7.95,20.93.92,31.83-6.59,10.21-15.95,17.23-26.38,23.08-17.91,10.05-37.05,16.34-57.42,18.92-12.57,1.59-25.08.92-37.55-1.09-.7-.11-1.38-.34-2.1-1.05,2.28-.3,4.55-.65,6.83-.89,22.26-2.36,44.37-5.53,65.94-11.85,12.86-3.77,23.66-10.78,32.91-20.24,10.71-10.95,10.34-23.93-.58-34.75-10.67-10.56-23.31-16.85-38.18-19.45-15.32-2.67-30.49-6.25-45.68-9.61-2.33-.52-3.55-.23-4.77,1.89-9.98,17.33-20.2,34.53-30.09,51.92-13.2,23.21-26.17,46.54-39.23,69.83-2.67,4.77-5.27,9.59-7.91,14.37-.3.55-.69,1.05-1.61,1.4.28-1.17.39-2.41.86-3.5,7.19-16.7,14.45-33.38,21.65-50.07,12.87-29.83,30.81-56.85,47.08-84.8.47-.81.94-1.63,1.37-2.47.12-.23.08-.54.15-1.07-8.69-1.81-17.37-3.62-26.05-5.42-.03-.26-.05-.51-.08-.77.88-.31,1.73-.75,2.64-.92,9.73-1.88,19.48-3.63,29.18-5.65,1.43-.3,3.08-1.49,3.84-2.74,9.54-15.73,18.9-31.57,28.37-47.35,9.85-16.42,19.83-32.76,29.59-49.23,2.1-3.54,3.9-7.35,5.13-11.27,1.69-5.35-.9-8.48-6.46-8.38-8.94.15-17.21,3.1-25.37,6.41-1.63.66-3.25,1.37-5.21,2.19,5.06-7.14,86.55-48.13,94.81-47.7-.69.55-1.12,1.02-1.65,1.3-11.98,6.42-21.12,16.01-29.85,26.17-9.44,10.98-15.98,23.79-23.48,36-18.12,29.51-36.03,59.15-54.02,88.74-.46.76-.81,1.59-1.37,2.69.95.08,1.51.28,1.98.15,20.52-5.37,41.15-10.4,61.53-16.27,20.86-6.01,41.17-13.67,60.94-22.67,17.12-7.79,32.36-18.33,45.32-31.96,7.71-8.11,12.4-17.78,12.52-29.22.08-7.81-2.56-14.81-7.01-21.14-7.62-10.8-17.75-18.78-29.18-25.11-22.59-12.53-46.55-21.53-71.93-26.51-19.84-3.89-39.84-6.66-60-8.36-24.8-2.08-49.6-3.15-74.47-1.58-20.19,1.28-40.41,2.95-59.99,8.09-15.21,3.99-29,11.38-39.84,23.25-10.81,11.84-10.6,25.2.54,38.77,6.73,8.19,15.15,14.45,24,20.11,10.33,6.62,20.79,13.02,31.18,19.54.72.45,1.31,1.13,1.96,1.7-.15.19-.29.39-.44.58Z"/>
</svg>