<?xml version="1.0" encoding="UTF-8"?>
<svg id="Layer_1" data-name="Layer 1" xmlns="http://www.w3.org/2000/svg" viewBox="0 0 555.88 290.6">
  <path d="m278.5,115c2.63.7,5.26,1.37,7.88,2.1,8.72,2.42,17.1,5.64,24.76,10.53,3.75,2.39,7.01,5.28,9.28,9.22,2.35,4.09,2.07,8.12.06,12.17-1.73,3.48-4.41,6.17-7.39,8.58-5.03,4.08-10.82,6.81-16.74,9.3-9.65,4.06-19.71,5.97-30.19,5.4-3.39-.19-6.77-.69-10.15-1.06-.17-.02-.32-.16-.92-.48,2.28-.28,4.11-.55,5.96-.73,8.13-.79,16.16-2.14,24.14-3.9,5.74-1.26,11.38-2.71,16.61-5.46,3.69-1.94,6.88-4.47,9.46-7.74,3.94-5.01,3.82-10.86-.44-15.58-4.12-4.55-9.04-7.85-15.15-9.2-9.53-2.1-19.05-4.19-28.56-6.36-1.03-.23-1.43.09-1.87.89-3.79,6.81-7.59,13.62-11.43,20.41-6.26,11.04-12.57,22.06-18.85,33.09-2.7,4.73-5.38,9.48-8.08,14.21-.51.89-1.07,1.74-1.61,2.61-.14-.06-.28-.11-.42-.17.32-1.17.49-2.4.97-3.49,3.44-7.76,7.1-15.43,10.4-23.25,4.96-11.75,11.87-22.41,18.27-33.37,2.12-3.63,4.3-7.22,6.44-10.83.17-.29.28-.62.56-1.26-4.91-1-9.66-1.96-14.41-2.93-.02-.1-.03-.21-.05-.31.82-.2,1.64-.43,2.48-.6,4.71-.92,9.43-1.83,14.15-2.72,1.19-.23,2.04-.75,2.71-1.86,9.62-16.03,19.32-32.02,28.92-48.06,1.09-1.83,1.96-3.84,2.62-5.86.92-2.81-.19-4.37-3.11-4.25-2.12.08-4.28.5-6.32,1.11-3.29.97-6.5,2.22-9.81,3.22,15.44-9.68,31.43-18.27,48.4-24.97.11.16.22.31.33.47-.3.35-.55.77-.91,1.05-.87.67-1.77,1.31-2.71,1.89-7.89,4.84-13.48,11.76-18.2,19.57-11,18.24-22.12,36.4-33.19,54.59-.2.33-.33.69-.66,1.4,1.49-.38,2.65-.7,3.83-.96,15.14-3.42,30.12-7.43,44.64-12.95,6.44-2.45,12.85-5.07,18.98-8.2,7.94-4.05,15.24-9.13,20.37-16.66,5.94-8.73,5.1-18.02-2.11-25.73-5.55-5.93-12.43-9.85-19.69-13.22-8.92-4.14-18.1-7.59-27.83-9.23-7.75-1.31-15.53-2.38-23.31-3.52-13.23-1.94-26.55-2.41-39.88-1.93-6.09.22-12.16,1.09-18.24,1.65-7.21.66-14.29,2.05-21.07,4.55-4.3,1.59-8.66,3.33-12.49,5.78-5.31,3.39-8.98,8.17-8.4,15.03.22,2.61,1.37,4.87,2.91,6.96,3.17,4.29,7.22,7.63,11.61,10.55,5.74,3.82,11.62,7.45,17.43,11.17.41.26.78.59,1.05,1.11-1.28-.7-2.56-1.39-3.83-2.1-9.28-5.2-18.16-10.97-26.13-18.06-1.94-1.73-3.77-3.59-5.62-5.42-.78-.77-1.52-1.6-2.23-2.44-4.33-5.13-4.4-8.28-.33-13.64,3.26-4.29,7.68-6.92,12.54-8.98,8.78-3.71,17.96-5.82,27.39-6.97,5.46-.67,10.9-1.55,16.38-2.12,11.83-1.23,23.71-1.42,35.59-1.06,11.99.37,23.89,1.64,35.68,3.81,15.11,2.78,29.49,7.73,43.1,14.88,5.11,2.69,9.54,6.24,13.24,10.69,6.96,8.36,7.67,17.86,2.49,27.36-4.19,7.7-10.69,13.16-18.08,17.61-8.99,5.4-18.62,9.45-28.37,13.26-8.71,3.4-17.79,5.41-26.8,7.71-4.79,1.23-9.68,2.06-14.53,3.08-.51.11-1.02.23-1.53.34,0,.09.02.17.03.26Z"/>
  <path d="m327.26,248.21h14.42c-.2,1.37-.42,2.86-.64,4.35q-.9-2.48-3.56-2.52c-1.34-.02-2.67,0-4.09,0,0,2.84-.03,5.47.04,8.11,0,.34.54.95.81.95,2.24-.06,4.47-.25,6.86-.4-.14,1.37-.3,2.95-.47,4.53l-.3.06c-.13-.37-.17-.82-.41-1.1-.41-.49-.9-1.15-1.44-1.25-1.32-.25-2.69-.2-4.04-.29-.74-.05-1.12.19-1.12,1,.03,2.45-.04,4.9.05,7.35.06,1.65.78,2.33,2.42,2.48.99.09,2,.12,2.99.05,1.42-.11,2.68-.53,2.98-2.22.04-.25.34-.45.9-.59-.24,1.31-.32,2.68-.79,3.9-.17.44-1.26.76-1.93.75-5.61-.04-11.22-.17-16.83-.28-2-.04-3.59-1.07-4.83-2.46-2.06-2.31-3.92-4.79-5.86-7.21-.78-.98-1.67-1.9-2.25-2.99-.96-1.8-2.41-2.18-4.25-2.02-1.14.1-2.29.02-3.81.02,0,1.73-.03,3.62,0,5.5.04,1.85.09,3.7.24,5.55.17,2.02.79,2.58,2.8,2.84.47.06.93.18,1.4.27-.01.13-.02.25-.04.38h-11.18c3.14-.53,2.98-2.98,3-5.16.05-8.45.08-16.91,0-25.36-.03-2.9-.59-3.6-3.1-3.5-.24,0-.48-.22-.89-.42.37-.21.57-.42.77-.42,4.9.04,9.87-.37,14.7.28,7.16.96,9.97,7.5,6.29,13.73-.91,1.54-2.11,2.91-3.26,4.29-.55.66-.61,1.15-.08,1.82,2.72,3.4,5.39,6.84,8.12,10.23,1.7,2.12,3.99,3.28,6.64,3.78,1.52.29,2.12-.05,2.22-1.57.17-2.69.22-5.39.25-8.09.04-3.05.03-6.1.01-9.15-.02-3.43-.03-3.43-2.76-5.2Zm-13.85.74c.12-4.82-1.53-7.65-5.29-8.81-1.16-.36-2.47-.33-3.71-.34-2.07,0-2.16.06-2.18,2.07-.05,3.45-.04,6.9,0,10.34.05,4.6-.96,4.05,4.37,4.48,4.13.33,6.38-1.67,6.8-5.8.06-.64,0-1.3,0-1.95Z"/>
  <path d="m228.82,262.8c0,2.6,0,5.08,0,7.57,0,1.43.73,2.1,2.18,2.01.22-.01.45.13.66.39-2.81.57-5.63.32-8.44.33,0-.18-.02-.35,0-.35,1.82-.43,2.16-1.71,2.15-3.37-.04-5.6.1-11.2,0-16.79-.05-2.94-.21-2.93-2.73-3.97.03-.09.06-.26.09-.26,3.94.05,7.94-.29,11.81.27,5.01.72,6.85,5.49,4.14,9.77-.58.93-1.23,1.85-2.01,2.61-.69.68-.75,1.17-.14,1.88,2.08,2.43,4.08,4.94,6.23,7.3,1.43,1.57,3.27,2.41,5.51,2.18,1.14-.12,1.74-.6,1.72-1.79-.03-2.3-.05-4.6-.04-6.9.01-4.69.04-9.39.08-14.08,0-.54.14-1.07.21-1.61.14-.1.27-.2.41-.3,3.2,3.38,6.35,6.81,9.62,10.12,3.29,3.34,6.69,6.56,10.36,10.15,0-1.79.02-3.2,0-4.6-.08-3.75-.18-7.5-.27-11.24-.05-2.35-.32-2.67-2.66-3.19-.18-.04-.36-.12-.53-.47h7.68s.02.18,0,.18c-2.19.55-2.3,2.14-2.27,4.03.09,6.45.02,12.9,0,19.35,0,.39-.09.77-.2,1.64-7.53-6.12-13.68-13.13-20.19-20.22-.16.66-.28.93-.27,1.19.2,4.95.39,9.89.65,14.83.13,2.45.19,2.45,2.62,2.92.12.02.21.18.55.48-.81.13-1.42.3-2.02.31-3.31.01-6.61-.01-9.92-.03-2.18,0-3.61-1.34-4.89-2.85-1.46-1.71-3.04-3.38-4.19-5.29-1.47-2.43-3.48-2.69-5.91-2.19Zm-.22-12.99c0,2.84-.03,5.48,0,8.13.04,3.84-.6,2.86,3.17,3.42,2.58.39,4.52-1.31,4.62-3.93.05-1.28-.08-2.6-.33-3.86-.43-2.24-1.97-3.42-4.15-3.74-1.02-.15-2.08-.03-3.32-.03Z"/>
  <path d="m5.05,238.41c.27-.11.54-.31.8-.31,4.25.05,8.54-.2,12.75.29,6.38.75,8.75,7.25,4.72,12.24-.72.89-1.5,1.73-2.38,2.75.54.25.98.45,1.41.64,4.8,2.12,7.29,6.52,6.22,11.35-.87,3.94-3.62,6.37-7.34,7.41-5.09,1.42-10.32-.07-15.78.49.31-.46.37-.64.45-.65,2.39-.35,2.82-2.08,2.82-4.06.01-9.1,0-18.2.02-27.3,0-1.58-1.05-2-2.28-2.28-.45-.1-.93-.12-1.39-.17,0-.14,0-.27-.01-.41Zm7.67,23.77s.06,0,.09,0c0,1.9.1,3.8-.03,5.69-.12,1.82.71,2.71,2.32,3.31,4.03,1.51,8.48-.46,9.43-4.27,1.69-6.78-3.84-13.06-10.91-12.33-.34.03-.84.74-.86,1.16-.09,2.14-.04,4.29-.04,6.44Zm.03-22.25c0,3.98-.03,8.02.05,12.06,0,.36.64,1,1.02,1.02,1.39.09,2.8-.05,4.2-.06,1.26,0,2.02-.65,2.57-1.73,1.13-2.21,1.18-4.53.63-6.86-.87-3.69-4.57-5.67-8.47-4.44Z"/>
  <path d="m382.32,273.02c1.78-.81,2.05-2.33,2.05-3.94.03-6,.03-12,.04-18,0-1.06-.54-1.66-1.53-1.94-.51-.14-1-.32-1.51-.48l.02-.41c.74,0,1.49,0,2.23,0,3.16-.03,6.31-.1,9.47-.1,3.8,0,7.34.85,10.45,3.15,5.14,3.79,5.19,11.48,2.43,16.03-2.41,3.98-6.18,5.51-10.52,6.03-1.53.18-3.1.13-4.65.07-2.83-.1-5.66-.27-8.48-.41Zm11.09-.97c3.42.01,6.71-1.04,8.26-2.9,3.71-4.48,3.56-12.58-1.31-16.53-3.04-2.46-6.61-2.86-10.32-2.86q-2.07,0-2.07,2c0,4.99.01,9.99,0,14.98,0,4.9.38,5.29,5.44,5.31Z"/>
  <path d="m159.3,248.4h8.48c-.01.18-.01.27-.02.27-2.35.36-2.33,2.09-2.28,3.88.05,1.55.04,3.1,0,4.65-.01.78.19,1.24,1.08,1.24,4.35-.01,8.7,0,13.42,0-.15-2.86-.25-5.58-.48-8.29-.03-.37-.67-.76-1.11-.99-.46-.24-1.02-.28-1.51-.74h8.41c-.04.14-.05.3-.09.31-1.83.39-2.14,1.58-2.1,3.3.12,5.5.04,11,.05,16.5,0,.7.05,1.4.16,2.09.18,1.16.68,1.98,2.08,1.77.25-.04.53.15.77.55h-8.59c2.27-.7,2.18-2.63,2.24-4.4.09-2.4,0-4.8.06-7.2.02-1-.35-1.24-1.33-1.23-3.85.04-7.71,0-11.57-.04-.72,0-1.47-.14-1.47.95.01,2.9-.09,5.8.07,8.69.13,2.32.39,2.42,2.95,2.73-.65.78-4.23,1.03-8.65.53,2.63-1.03,2.28-3.14,2.3-4.98.06-5.4.02-10.8-.06-16.19-.04-2.38-.13-2.37-2.4-2.9-.17-.04-.32-.15-.48-.23.01-.09.03-.18.04-.28Z"/>
  <path d="m435.73,247.64c6.53,6.69,13.06,13.37,19.88,20.36.08-.87.16-1.34.15-1.8-.1-4.95-.23-9.89-.33-14.84-.02-1.23-.64-1.94-1.78-2.28-.42-.12-.83-.26-1.23-.66h7.98c-.5.27-.73.46-.98.51-1.33.3-1.67,1.16-1.66,2.44.04,6.7.03,13.4.02,20.1,0,.57-.1,1.15-.19,2.21-1.1-.87-1.97-1.42-2.66-2.13-5.29-5.39-10.55-10.82-15.83-16.22-.54-.55-1.14-1.05-1.89-1.73-.11.46-.2.63-.19.79.23,5.09.44,10.18.71,15.27.12,2.37.28,2.49,2.76,3.24-2.6.27-5.21.34-7.91.14.11-.25.13-.38.19-.4,2.41-.84,2.4-.84,2.4-3.52-.01-6.1-.02-12.2-.01-18.3,0-1.02.1-2.03.15-3.05.15-.04.29-.09.44-.13Z"/>
  <path d="m204.23,247.67c7.72.04,13.73,5.53,13.51,12.65-.24,7.71-5.47,13.19-13.42,13.31-8.28.13-13.73-5.2-13.74-13.22,0-6.65,6.62-12.78,13.65-12.74Zm9.98,12.49c-.29-1.08-.63-3.27-1.45-5.26-1.59-3.86-5.09-5.84-9.36-5.66-4.1.17-7.06,2.13-8.23,5.82-1.46,4.61-1.05,9.07,1.84,13.12,2.83,3.96,8.37,5.1,12.56,2.6,3.62-2.16,4.45-5.67,4.64-10.62Z"/>
  <path d="m118.27,272.97h-8.54c2.22-.76,1.98-2.72,2-4.4.07-5.95,0-11.9.03-17.85,0-1.64-1.39-1.55-2.31-2.3h7.79c-2.62.88-2.16,3.14-2.25,5.1-.09,1.82-.02,3.65-.02,6,1.2-.96,2.1-1.55,2.84-2.29,1.8-1.8,3.61-3.61,5.27-5.55.77-.91,1.18-2.12,1.89-3.44h6.03c.04.12.08.24.12.36-.4.18-.8.34-1.18.54-1.3.7-2.74,1.22-3.85,2.15-2.72,2.28-5.29,4.74-7.86,7.18-.24.23-.29,1.08-.08,1.29,3.64,3.58,7.22,7.22,11.06,10.57,1.42,1.24,3.47,1.76,5.33,2.66-3.45.2-6.87.63-9.61-2.27-3-3.16-6.06-6.25-9.09-9.38-.17-.17-.36-.32-.74-.65-.08.55-.19.9-.18,1.25.07,2.65.14,5.3.26,7.95.09,1.97.32,2.18,2.25,2.43.28.04.55.17.82.25,0,.13,0,.26.01.38Z"/>
  <path d="m513.3,247.72c.26.5.58.98.79,1.5,2.4,5.97,4.79,11.94,7.18,17.91.17.42.34.83.51,1.25.89,2.19,2.01,4.14,4.91,4.23-.08.14-.15.27-.23.41h-6.77c-1.05-2.75-2.14-5.51-3.15-8.3-.31-.86-.76-1.12-1.68-1.04-1.59.13-3.2.15-4.8.1-.92-.03-1.35.3-1.6,1.16-.51,1.72-1.11,3.41-1.68,5.11-.48,1.42-.34,2.51,1.43,2.97h-7.65c.27-.29.36-.48.47-.49,2.45-.24,3.13-2.08,3.84-4.01,2.39-6.45,4.85-12.88,7.29-19.31.19-.49.44-.96.66-1.44.16-.01.31-.03.47-.04Zm-.61,6.07l-.39-.03c-.9,2.74-1.8,5.48-2.71,8.27h6.14c-1.06-2.87-2.05-5.56-3.04-8.25Z"/>
  <path d="m79.48,273.2c-2.08,0-4.16.03-6.23-.04-.23,0-.53-.57-.65-.92-.95-2.67-1.83-5.36-2.83-8-.11-.29-.81-.49-1.24-.51-1.8-.07-3.6-.11-5.4-.04-.41.02-1.02.44-1.17.82-.8,2.1-1.46,4.25-2.21,6.37-.56,1.58,1,1.36,1.94,2.1h-8.08c.17-.27.21-.4.26-.4,2.56-.11,3.43-1.85,4.22-3.96,2.56-6.88,5.26-13.7,7.92-20.54.05-.13.18-.23.39-.48.27.48.57.87.74,1.31,2.48,6.16,4.94,12.32,7.41,18.48.11.28.22.56.33.84.85,2.22,1.91,4.23,4.8,4.39l-.19.59Zm-13.59-19.31c-.12-.02-.24-.05-.35-.07-.91,2.72-1.82,5.44-2.83,8.43,1.99,0,3.64.04,5.27-.04.24-.01.72-.71.64-.94-.86-2.48-1.81-4.92-2.73-7.37Z"/>
  <path d="m413.03,272.73c2.51-.52,2.1-2.42,2.1-4.14,0-5.35-.02-10.7,0-16.04.02-2.89.06-2.89-2.63-4.15.38-.05.75-.14,1.13-.15,4.1-.06,8.21-.11,12.31-.12.32,0,.92.31.91.46-.04,1.34-.19,2.68-.32,4.14-.36-.19-.49-.22-.51-.28q-.76-2.4-3.32-2.4c-1.24,0-2.48,0-3.83,0,0,2.84-.01,5.52,0,8.2,0,.74.39.99,1.18.9,2.07-.22,4.16-.32,6.38-.48-.11,1.42-.23,2.92-.35,4.41-.18,0-.34.01-.35,0-.44-2.45-2.4-2.27-4.17-2.4-.84-.06-1.68,0-2.79,0,0,2.29-.03,4.52,0,6.75.06,3.77.44,4.14,4.25,4.2,2.35.04,3.18-.5,4.02-2.58.08-.21.25-.38.42-.61,1.21,2.21-.02,4.94-2.22,4.94-3.95,0-7.9-.17-11.85-.28-.07,0-.14-.12-.4-.37Z"/>
  <path d="m103.19,255.49c.16-3.42-1.65-4.84-4.44-5.59-2.37-.63-4.73-.84-7.12-.38-4.1.79-6.44,3.5-7.07,8.04-.88,6.43,1.91,11.27,7.99,13.64,3.12,1.22,6.23.76,9.16-.62.68-.32,1.03-1.36,1.47-2.11.25-.42.37-.92.63-1.62,1.18,2.6-.45,6.03-2.8,6.37-4.56.66-9.1.83-13.3-1.52-6-3.36-8.46-10.62-5.51-16.65,2.38-4.86,6.57-7.21,11.87-7.3,3.03-.05,6.07.46,9.1.77.31.03.84.41.84.62-.03,1.94-.16,3.87-.27,5.81,0,.1-.19.19-.55.53Z"/>
  <path d="m479.62,272.99h-8.63c2.38-.78,2.1-2.87,2.12-4.67.08-5.65.02-11.3.07-16.94,0-1.07-.36-1.44-1.4-1.33-.59.07-1.2.01-1.8,0-2.46-.04-5.05-.42-6.2,2.86-.11-.13-.22-.27-.33-.4.32-1.5.64-3,.92-4.32,5.99,0,11.79,0,17.59,0,.2,0,.4,0,.6,0,.91.04,2.59-.03,2.62.13.21,1.47.12,2.97.12,4.47l-.37.03c-.1-.25-.26-.5-.3-.76-.18-1.32-1.05-1.93-2.26-1.97-1.89-.07-3.79-.02-5.91-.02,0,.59,0,1.12,0,1.65,0,5.3-.09,10.6.05,15.89.06,2.16-.87,5.21,3.49,4.9-.12.16-.25.31-.37.47Z"/>
  <path d="m155.03,253.07c-.53-3.63-3.09-3.01-5.34-3.01-3.2,0-3.21,0-3.22,3.2-.01,4.7,0,9.4,0,14.1,0,.3,0,.6.01.9q.08,3.49,3.08,4.3c-.84.67-5.91.94-8.84.36,3.05-1.02,2.38-3.43,2.42-5.42.11-5.35,0-10.7.07-16.05.01-1.17-.4-1.51-1.48-1.39-.59.07-1.2,0-1.8,0-2.41-.04-4.95-.42-6.1,2.75-.12-.12-.23-.24-.35-.36.29-1.33.54-2.67.91-3.98.07-.26.65-.53,1-.53,6.35.01,12.71.06,19.06.15.31,0,.87.41.88.66.09,1.31.04,2.63.04,3.95-.11.13-.23.26-.34.38Z"/>
  <path d="m544.9,268.41c-.13.82-.24,1.64-.39,2.46-.4,2.29-.69,2.54-3.06,2.5-3.9-.06-7.8-.14-11.7-.23-.37,0-.73-.11-1.29-.38,2.89-.16,2.53-2.11,2.53-3.89-.02-5.74-.02-11.49-.02-17.23q0-2.22-2.25-2.72c-.21-.05-.41-.16-.57-.54h9.1c-.08.2-.1.35-.15.37-2.59.73-2.57.73-2.56,3.44.02,5.05,0,10.09.03,15.14,0,.79-.06,1.68.26,2.35.31.67,1.02,1.53,1.64,1.61,1.76.21,3.58.22,5.34-.01.7-.09,1.34-.98,1.91-1.58.36-.38.54-.91.8-1.38.12.04.25.07.37.11Z"/>
  <path d="m360.57,252.99c-.17-.35-.36-.7-.52-1.05-1.16-2.53-4.45-3.51-6.82-2.02-1.91,1.2-2.41,3.22-1.02,5,.98,1.24,2.24,2.26,3.41,3.34,1.32,1.22,2.79,2.3,3.98,3.63,1.93,2.16,2.71,4.75,1.37,7.48-1.46,2.96-4.06,4.34-7.33,4.29-1.29-.02-2.6-.23-3.86-.53-.55-.13-1.38-.66-1.42-1.08-.17-1.59-.07-3.21-.07-4.81.16-.01.32-.02.49-.03.12.29.33.57.34.87.19,3.34,2.73,4.19,5.4,4,4.09-.29,5.7-3.73,3.27-7.04-1.02-1.38-2.49-2.43-3.77-3.62-.92-.85-1.86-1.68-2.77-2.53-1.95-1.81-2.95-4.1-2.08-6.61.97-2.81,3.28-4.41,6.29-4.58,1.53-.09,3.09.16,4.61.4.38.06.95.65.96,1.02.05,1.27-.11,2.54-.19,3.81-.1.02-.2.04-.29.05Z"/>
  <path d="m35.14,272.72c2.52-.22,2.55-1.92,2.54-3.61-.03-6-.06-11.99-.11-17.99-.01-1.32-.49-2.23-2.03-2.16-.24.01-.5-.18-.71-.57h8.91c-.02.15-.01.24-.03.24-2.65.41-2.7,2.21-2.63,4.38.17,5.09.07,10.2.15,15.3.04,2.74.55,3.19,3.29,3.29.9.03,1.81.04,2.7-.05,1.62-.16,3.09-.6,3.35-2.57.02-.13.14-.26.24-.37.06-.06.17-.08.68-.29-.36,1.67-.47,3.19-1.07,4.49-.22.47-1.62.53-2.48.53-2.75,0-5.51-.11-8.26-.16-1.41-.02-2.83,0-4.24,0-.1-.15-.2-.29-.3-.44Z"/>
  <path d="m498.67,272.96h-8.51s-.02-.19,0-.2c1.89-.62,2.02-2.03,1.98-3.77-.12-5.8-.17-11.6-.05-17.39.04-1.78-.6-2.65-2.47-2.89.1-.11.2-.23.3-.34h8.04c-.43.28-.61.46-.82.51-1.3.28-1.53,1.18-1.52,2.34.05,6.1.05,12.2.08,18.29.01,2.25.29,2.54,2.46,2.92.18.03.35.15.52.23l-.02.29Z"/>
  <path d="m375.51,273h-8.31c2.66-1.1,2.07-3.46,2.12-5.42.12-4.8.06-9.6.05-14.4,0-1.93.31-4.05-2.39-4.79h7.88c-.04.16-.05.32-.08.32-2.07.13-2.2,1.53-2.18,3.16.05,5.35.01,10.7.04,16.05.01,2.15-.56,4.7,3.25,4.66-.13.14-.26.28-.38.42Z"/>
</svg>