<?xml version="1.0" encoding="UTF-8"?>
<svg id="Layer_1" data-name="Layer 1" xmlns="http://www.w3.org/2000/svg" viewBox="0 0 1290.71 674.75">
  <defs>
    <style>
      .cls-1 {
        fill: #fff;
      }
    </style>
  </defs>
  <path class="cls-1" d="m646.66,267.03c6.1,1.62,12.22,3.18,18.31,4.86,20.25,5.61,39.71,13.1,57.5,24.45,8.71,5.56,16.29,12.26,21.54,21.41,5.46,9.5,4.8,18.86.14,28.25-4.01,8.07-10.25,14.33-17.16,19.93-11.68,9.47-25.13,15.81-38.87,21.59-22.4,9.42-45.77,13.86-70.09,12.53-7.88-.43-15.71-1.61-23.57-2.47-.39-.04-.75-.38-2.13-1.11,5.29-.66,9.55-1.29,13.83-1.7,18.88-1.83,37.52-4.98,56.05-9.05,13.34-2.93,26.42-6.3,38.57-12.69,8.56-4.5,15.98-10.38,21.96-17.97,9.16-11.63,8.88-25.21-1.03-36.17-9.56-10.57-21-18.24-35.17-21.36-22.12-4.88-44.24-9.74-66.32-14.77-2.39-.54-3.32.22-4.35,2.07-8.81,15.82-17.62,31.63-26.55,47.38-14.54,25.64-29.18,51.22-43.76,76.83-6.26,10.99-12.49,22.01-18.76,33-1.18,2.06-2.49,4.05-3.74,6.07-.32-.13-.64-.26-.97-.39.74-2.71,1.13-5.56,2.26-8.1,8-18.02,16.49-35.83,24.15-53.99,11.51-27.29,27.56-52.05,42.41-77.48,4.92-8.42,9.98-16.75,14.95-25.14.4-.67.65-1.44,1.31-2.92-11.39-2.31-22.43-4.56-33.47-6.8-.04-.24-.08-.48-.12-.73,1.91-.47,3.81-1.01,5.75-1.39,10.95-2.13,21.9-4.25,32.86-6.33,2.76-.52,4.74-1.74,6.29-4.31,22.34-37.22,44.85-74.35,67.16-111.59,2.54-4.24,4.54-8.91,6.08-13.61,2.13-6.53-.45-10.14-7.22-9.87-4.93.19-9.93,1.17-14.68,2.57-7.64,2.26-15.09,5.16-22.78,7.48,35.84-22.47,72.98-42.43,112.37-57.98.25.36.51.73.76,1.09-.7.82-1.29,1.79-2.12,2.43-2.03,1.55-4.11,3.05-6.29,4.38-18.32,11.23-31.31,27.3-42.25,45.45-25.53,42.35-51.37,84.51-77.07,126.76-.46.76-.77,1.61-1.54,3.24,3.45-.87,6.15-1.62,8.88-2.23,35.15-7.94,69.93-17.25,103.64-30.06,14.95-5.68,29.84-11.78,44.08-19.04,18.44-9.4,35.39-21.2,47.29-38.69,13.8-20.27,11.84-41.84-4.89-59.74-12.88-13.77-28.87-22.87-45.73-30.7-20.72-9.62-42.02-17.61-64.63-21.43-17.99-3.03-36.07-5.53-54.12-8.17-30.72-4.51-61.64-5.6-92.61-4.47-14.15.51-28.24,2.54-42.36,3.83-16.75,1.53-33.18,4.75-48.92,10.57-9.98,3.69-20.1,7.73-29,13.42-12.32,7.87-20.85,18.96-19.51,34.9.51,6.06,3.18,11.31,6.77,16.16,7.36,9.96,16.77,17.72,26.96,24.5,13.34,8.88,26.98,17.31,40.48,25.95.96.61,1.82,1.38,2.43,2.58-2.96-1.62-5.94-3.22-8.89-4.87-21.55-12.07-42.18-25.47-60.67-41.93-4.51-4.02-8.75-8.34-13.05-12.59-1.82-1.8-3.53-3.71-5.17-5.66-10.06-11.92-10.21-19.22-.76-31.66,7.56-9.95,17.84-16.07,29.13-20.85,20.38-8.62,41.69-13.51,63.6-16.17,12.69-1.54,25.32-3.6,38.03-4.92,27.48-2.85,55.06-3.29,82.65-2.45,27.83.85,55.46,3.8,82.84,8.85,35.09,6.47,68.48,17.96,100.06,34.55,11.87,6.24,22.15,14.49,30.74,24.81,16.15,19.41,17.8,41.46,5.78,63.52-9.74,17.87-24.82,30.57-41.98,40.88-20.87,12.55-43.23,21.94-65.88,30.79-20.22,7.9-41.31,12.55-62.22,17.91-11.12,2.85-22.48,4.79-33.73,7.15-1.19.25-2.36.53-3.55.79.02.2.04.41.06.61Z"/>
  <path class="cls-1" d="m759.88,576.33h33.49c-.46,3.18-.97,6.64-1.48,10.11q-2.08-5.75-8.26-5.84c-3.1-.04-6.2,0-9.51,0,0,6.59-.07,12.71.09,18.82.02.78,1.25,2.22,1.88,2.2,5.19-.15,10.38-.57,15.93-.93-.33,3.17-.71,6.84-1.08,10.52l-.69.15c-.3-.87-.4-1.91-.95-2.57-.96-1.13-2.08-2.66-3.34-2.9-3.06-.57-6.25-.46-9.38-.68-1.72-.12-2.61.45-2.59,2.32.07,5.69-.09,11.39.11,17.07.14,3.83,1.8,5.41,5.62,5.77,2.3.22,4.65.29,6.95.11,3.3-.25,6.21-1.23,6.91-5.14.1-.57.78-1.04,2.09-1.36-.55,3.04-.75,6.21-1.84,9.04-.4,1.03-2.93,1.75-4.48,1.74-13.02-.1-26.05-.39-39.07-.65-4.64-.09-8.34-2.49-11.21-5.7-4.79-5.36-9.11-11.13-13.6-16.75-1.81-2.27-3.89-4.42-5.23-6.95-2.22-4.17-5.59-5.05-9.86-4.68-2.64.23-5.32.04-8.84.04,0,4.02-.07,8.4.02,12.76.09,4.29.2,8.6.56,12.88.39,4.7,1.83,5.99,6.49,6.58,1.09.14,2.17.41,3.25.63-.03.29-.05.58-.08.88h-25.97c7.28-1.24,6.92-6.91,6.95-11.97.13-19.63.19-39.26,0-58.89-.07-6.73-1.37-8.36-7.19-8.14-.55.02-1.12-.51-2.07-.97.87-.49,1.33-.98,1.79-.98,11.39.1,22.92-.85,34.13.65,16.62,2.23,23.15,17.41,14.59,31.89-2.11,3.57-4.9,6.76-7.57,9.96-1.28,1.53-1.42,2.68-.18,4.24,6.31,7.9,12.52,15.87,18.85,23.75,3.96,4.92,9.27,7.62,15.42,8.78,3.53.67,4.92-.11,5.15-3.65.4-6.25.5-12.52.58-18.79.1-7.08.07-14.17.03-21.26-.04-7.97-.07-7.97-6.4-12.07Zm-32.17,1.71c.27-11.19-3.55-17.77-12.28-20.47-2.69-.83-5.73-.77-8.6-.78-4.81-.02-5,.13-5.07,4.82-.12,8-.1,16.01-.01,24.02.12,10.68-2.22,9.41,10.16,10.41,9.6.77,14.82-3.88,15.79-13.47.15-1.49.02-3.01.02-4.52Z"/>
  <path class="cls-1" d="m531.31,610.21c0,6.03-.02,11.8,0,17.57.02,3.32,1.7,4.89,5.07,4.67.51-.03,1.04.3,1.53.9-6.52,1.33-13.07.74-19.59.77,0-.43-.04-.81,0-.82,4.23-1,5.02-3.96,4.99-7.83-.09-13,.22-26,0-38.99-.12-6.82-.48-6.81-6.33-9.22.07-.21.14-.6.2-.6,9.15.11,18.44-.67,27.43.63,11.64,1.68,15.9,12.74,9.62,22.68-1.36,2.15-2.86,4.29-4.66,6.05-1.6,1.57-1.74,2.71-.33,4.36,4.84,5.64,9.47,11.47,14.47,16.95,3.33,3.65,7.59,5.61,12.8,5.05,2.66-.28,4.04-1.38,4-4.15-.08-5.34-.11-10.68-.09-16.02.03-10.9.09-21.8.19-32.7.01-1.25.32-2.49.49-3.74.32-.23.63-.46.95-.7,7.43,7.84,14.75,15.8,22.34,23.5,7.63,7.75,15.53,15.24,24.04,23.56,0-4.15.06-7.42-.01-10.68-.18-8.7-.42-17.41-.62-26.11-.13-5.46-.74-6.2-6.18-7.4-.43-.09-.83-.28-1.23-1.1h17.82s.05.42,0,.43c-5.08,1.28-5.33,4.96-5.28,9.37.2,14.97.06,29.95.02,44.93,0,.9-.21,1.79-.46,3.8-17.47-14.21-31.77-30.48-46.89-46.94-.36,1.53-.66,2.15-.63,2.77.47,11.48.9,22.97,1.5,34.44.3,5.7.45,5.68,6.08,6.79.28.05.5.42,1.27,1.1-1.89.3-3.29.71-4.69.71-7.68.03-15.35-.03-23.03-.07-5.05-.02-8.38-3.11-11.36-6.61-3.38-3.98-7.05-7.84-9.73-12.27-3.42-5.64-8.08-6.25-13.73-5.1Zm-.51-30.16c0,6.59-.06,12.74.01,18.88.1,8.91-1.39,6.64,7.35,7.95,5.98.9,10.49-3.05,10.73-9.12.12-2.98-.2-6.04-.76-8.97-.99-5.2-4.58-7.95-9.64-8.68-2.37-.34-4.82-.06-7.7-.06Z"/>
  <path class="cls-1" d="m11.72,553.56c.62-.25,1.25-.73,1.87-.72,9.87.13,19.84-.48,29.6.68,14.8,1.75,20.31,16.83,10.95,28.42-1.67,2.07-3.47,4.03-5.52,6.39,1.26.57,2.27,1.03,3.28,1.48,11.15,4.93,16.93,15.13,14.45,26.36-2.02,9.14-8.41,14.78-17.04,17.19-11.83,3.31-23.95-.17-36.65,1.14.72-1.07.85-1.47,1.04-1.5,5.56-.82,6.54-4.83,6.54-9.42.03-21.13,0-42.26.05-63.39,0-3.68-2.44-4.65-5.29-5.29-1.06-.24-2.16-.27-3.24-.39,0-.31-.02-.63-.03-.94Zm17.81,55.2c.07,0,.14,0,.21,0,0,4.41.23,8.83-.07,13.22-.28,4.21,1.64,6.29,5.39,7.7,9.36,3.5,19.69-1.07,21.89-9.91,3.93-15.74-8.91-30.32-25.34-28.63-.78.08-1.95,1.73-1.99,2.68-.2,4.98-.09,9.96-.09,14.95Zm.06-51.65c0,9.24-.06,18.62.11,28,.02.84,1.5,2.32,2.37,2.38,3.24.21,6.5-.11,9.76-.13,2.92-.02,4.68-1.51,5.96-4.01,2.63-5.14,2.74-10.51,1.47-15.94-2.01-8.58-10.61-13.18-19.66-10.3Z"/>
  <path class="cls-1" d="m887.72,633.93c4.12-1.89,4.75-5.41,4.77-9.14.07-13.93.07-27.87.1-41.8,0-2.45-1.26-3.86-3.55-4.51-1.18-.33-2.33-.73-3.5-1.11l.04-.94c1.73,0,3.46.02,5.19,0,7.33-.08,14.66-.22,21.99-.24,8.81-.02,17.04,1.98,24.26,7.3,11.92,8.8,12.04,26.66,5.64,37.23-5.6,9.24-14.35,12.8-24.43,13.99-3.56.42-7.2.29-10.8.17-6.57-.22-13.13-.62-19.7-.95Zm25.74-2.25c7.94.03,15.59-2.41,19.17-6.74,8.62-10.4,8.27-29.21-3.04-38.37-7.06-5.72-15.36-6.63-23.96-6.64q-4.82,0-4.81,4.64c0,11.59.03,23.19.01,34.78-.02,11.37.88,12.27,12.63,12.32Z"/>
  <path class="cls-1" d="m369.89,576.77h19.7c-.03.43-.03.62-.05.62-5.46.84-5.42,4.85-5.29,9.01.11,3.6.09,7.2.02,10.8-.03,1.81.45,2.88,2.5,2.87,10.1-.03,20.2-.01,31.16-.01-.34-6.65-.57-12.96-1.11-19.24-.07-.85-1.55-1.77-2.57-2.29-1.08-.55-2.38-.66-3.52-1.72h19.53c-.09.34-.11.71-.2.73-4.25.92-4.96,3.66-4.88,7.67.27,12.76.09,25.54.13,38.31,0,1.62.13,3.25.38,4.84.42,2.7,1.59,4.6,4.84,4.12.57-.09,1.22.34,1.78,1.28h-19.95c5.28-1.62,5.06-6.11,5.21-10.21.2-5.57.01-11.14.14-16.71.05-2.33-.81-2.88-3.09-2.85-8.95.1-17.9-.02-26.86-.09-1.66-.01-3.42-.31-3.4,2.21.03,6.73-.21,13.47.16,20.19.29,5.39.9,5.63,6.85,6.33-1.51,1.81-9.82,2.4-20.08,1.23,6.1-2.4,5.3-7.28,5.34-11.56.13-12.53.05-25.07-.15-37.6-.09-5.52-.31-5.51-5.58-6.73-.39-.09-.74-.36-1.11-.54.03-.21.07-.43.1-.64Z"/>
  <path class="cls-1" d="m1011.73,575c15.16,15.53,30.33,31.05,46.16,47.27.18-2.03.38-3.11.35-4.18-.24-11.49-.54-22.97-.76-34.46-.06-2.87-1.48-4.51-4.13-5.28-.97-.28-1.94-.6-2.86-1.54h18.53c-1.17.63-1.69,1.06-2.27,1.19-3.09.69-3.87,2.7-3.85,5.66.1,15.55.06,31.11.04,46.67,0,1.33-.22,2.67-.45,5.14-2.56-2.02-4.57-3.29-6.18-4.93-12.29-12.52-24.49-25.11-36.75-37.67-1.25-1.28-2.65-2.43-4.39-4.02-.26,1.07-.46,1.46-.44,1.84.53,11.82,1.03,23.63,1.65,35.45.29,5.51.65,5.78,6.4,7.53-6.04.63-12.09.78-18.37.33.26-.59.3-.89.43-.94,5.59-1.95,5.58-1.95,5.56-8.18-.03-14.16-.05-28.32-.03-42.48,0-2.36.22-4.72.35-7.08.34-.1.68-.21,1.01-.31Z"/>
  <path class="cls-1" d="m474.21,575.08c17.93.1,31.87,12.84,31.37,29.37-.55,17.91-12.69,30.63-31.16,30.91-19.21.29-31.87-12.06-31.9-30.7-.02-15.45,15.38-29.67,31.69-29.58Zm23.18,28.99c-.66-2.51-1.45-7.59-3.36-12.22-3.69-8.96-11.81-13.56-21.74-13.14-9.51.41-16.38,4.95-19.1,13.52-3.4,10.71-2.44,21.07,4.27,30.46,6.57,9.18,19.44,11.83,29.15,6.04,8.41-5.01,10.34-13.16,10.78-24.67Z"/>
  <path class="cls-1" d="m274.61,633.83h-19.82c5.17-1.77,4.61-6.31,4.65-10.21.15-13.81,0-27.63.07-41.45.02-3.8-3.23-3.61-5.35-5.33h18.08c-6.09,2.05-5.01,7.3-5.22,11.83-.2,4.23-.04,8.48-.04,13.93,2.79-2.22,4.87-3.59,6.6-5.31,4.19-4.18,8.39-8.38,12.23-12.88,1.79-2.11,2.75-4.92,4.39-7.98h14c.09.28.19.55.28.83-.92.42-1.86.78-2.75,1.26-3.01,1.61-6.37,2.83-8.94,4.99-6.3,5.3-12.28,11-18.26,16.68-.55.53-.67,2.51-.18,2.99,8.44,8.31,16.77,16.76,25.68,24.54,3.3,2.88,8.06,4.09,12.38,6.17-8.02.46-15.94,1.45-22.32-5.26-6.96-7.33-14.07-14.52-21.12-21.77-.39-.4-.84-.74-1.72-1.51-.19,1.28-.43,2.1-.41,2.91.16,6.15.33,12.3.59,18.45.2,4.57.74,5.05,5.23,5.65.65.09,1.27.38,1.91.59,0,.3.02.59.02.89Z"/>
  <path class="cls-1" d="m1191.85,575.18c.61,1.16,1.34,2.28,1.83,3.49,5.58,13.86,11.12,27.73,16.67,41.59.39.97.78,1.93,1.17,2.9,2.06,5.09,4.67,9.6,11.41,9.81-.18.31-.36.63-.53.94h-15.71c-2.44-6.39-4.96-12.8-7.31-19.27-.73-2.01-1.76-2.59-3.89-2.42-3.7.31-7.43.34-11.14.23-2.13-.06-3.13.7-3.73,2.7-1.18,3.99-2.57,7.91-3.9,11.86-1.11,3.29-.79,5.83,3.31,6.89h-17.75c.63-.68.84-1.11,1.08-1.13,5.69-.55,7.26-4.82,8.92-9.32,5.54-14.98,11.27-29.9,16.94-44.84.43-1.14,1.02-2.23,1.54-3.35.36-.03.73-.06,1.09-.09Zm-1.41,14.1l-.91-.07c-2.09,6.36-4.17,12.72-6.3,19.21h14.26c-2.46-6.67-4.76-12.91-7.06-19.15Z"/>
  <path class="cls-1" d="m184.56,634.35c-4.83,0-9.65.07-14.47-.1-.54-.02-1.22-1.32-1.51-2.15-2.2-6.19-4.25-12.44-6.56-18.59-.25-.67-1.88-1.13-2.89-1.17-4.18-.17-8.37-.26-12.54-.09-.96.04-2.38,1.03-2.71,1.91-1.85,4.87-3.4,9.86-5.13,14.78-1.29,3.68,2.33,3.16,4.51,4.89h-18.76c.38-.62.48-.93.6-.93,5.94-.25,7.97-4.29,9.79-9.2,5.94-15.97,12.22-31.8,18.38-47.68.12-.3.43-.53.91-1.11.64,1.11,1.31,2.02,1.72,3.04,5.76,14.29,11.48,28.6,17.21,42.91.26.64.51,1.29.76,1.94,1.98,5.16,4.45,9.82,11.14,10.19l-.45,1.36Zm-31.55-44.83c-.27-.06-.55-.11-.82-.16-2.12,6.31-4.24,12.62-6.57,19.57,4.63,0,8.45.09,12.25-.1.56-.03,1.66-1.65,1.48-2.17-1.99-5.75-4.19-11.43-6.34-17.12Z"/>
  <path class="cls-1" d="m959.01,633.26c5.83-1.21,4.88-5.62,4.88-9.61,0-12.42-.05-24.83.02-37.25.04-6.71.14-6.71-6.11-9.63.88-.12,1.75-.33,2.63-.34,9.53-.13,19.05-.25,28.58-.29.74,0,2.13.71,2.12,1.06-.1,3.12-.45,6.23-.75,9.61-.84-.44-1.14-.5-1.18-.64q-1.76-5.57-7.72-5.57c-2.88,0-5.75,0-8.89,0,0,6.6-.03,12.82.02,19.05.01,1.71.9,2.29,2.75,2.1,4.82-.5,9.66-.74,14.82-1.11-.26,3.3-.54,6.78-.81,10.23-.43,0-.8.03-.81,0-1.02-5.68-5.58-5.28-9.67-5.56-1.95-.14-3.91-.02-6.47-.02,0,5.32-.06,10.5.01,15.68.13,8.76,1.02,9.6,9.88,9.74,5.46.09,7.39-1.16,9.34-5.99.19-.48.59-.87.97-1.41,2.8,5.14-.04,11.47-5.15,11.47-9.17,0-18.34-.39-27.5-.64-.16,0-.32-.28-.94-.86Z"/>
  <path class="cls-1" d="m239.59,593.22c.36-7.95-3.83-11.25-10.31-12.97-5.51-1.47-10.98-1.95-16.54-.87-9.52,1.84-14.96,8.13-16.41,18.67-2.05,14.93,4.45,26.16,18.55,31.68,7.25,2.83,14.47,1.77,21.28-1.44,1.57-.74,2.4-3.16,3.42-4.9.58-.98.86-2.15,1.47-3.76,2.74,6.03-1.04,14.01-6.51,14.8-10.59,1.53-21.13,1.92-30.89-3.54-13.93-7.79-19.65-24.67-12.8-38.66,5.52-11.28,15.25-16.75,27.57-16.95,7.04-.12,14.1,1.06,21.14,1.78.72.07,1.95.95,1.94,1.44-.08,4.5-.37,8.99-.64,13.49-.01.23-.43.44-1.28,1.24Z"/>
  <path class="cls-1" d="m1113.65,633.87h-20.05c5.52-1.82,4.87-6.66,4.93-10.85.19-13.11.05-26.23.16-39.34.02-2.48-.83-3.35-3.24-3.08-1.38.15-2.79.03-4.18,0-5.71-.1-11.72-.97-14.39,6.63-.26-.31-.51-.62-.77-.92.74-3.48,1.49-6.97,2.14-10.02,13.91,0,27.38,0,40.84,0,.47,0,.93,0,1.4.02,2.12.08,6.02-.07,6.08.3.48,3.4.28,6.9.28,10.37l-.86.08c-.24-.58-.6-1.15-.69-1.76-.42-3.07-2.43-4.47-5.25-4.58-4.4-.17-8.81-.04-13.73-.04,0,1.38,0,2.6,0,3.83,0,12.3-.22,24.61.11,36.91.13,5.01-2.02,12.11,8.09,11.38-.29.36-.58.72-.87,1.08Z"/>
  <path class="cls-1" d="m359.96,587.6c-1.22-8.43-7.16-6.99-12.39-6.99-7.43,0-7.46.02-7.48,7.43-.03,10.92-.01,21.83-.01,32.75,0,.7.01,1.39.03,2.09q.18,8.11,7.15,9.98c-1.94,1.56-13.71,2.18-20.53.85,7.08-2.37,5.51-7.96,5.61-12.58.26-12.42.02-24.85.16-37.27.03-2.72-.92-3.51-3.44-3.23-1.38.15-2.79.01-4.19-.01-5.59-.09-11.49-.98-14.15,6.38-.27-.28-.54-.55-.81-.83.68-3.09,1.25-6.21,2.12-9.24.17-.6,1.51-1.24,2.31-1.24,14.76.03,29.51.14,44.26.34.72,0,2.01.95,2.05,1.53.21,3.04.1,6.11.1,9.17-.26.3-.53.59-.79.89Z"/>
  <path class="cls-1" d="m1265.22,623.22c-.3,1.9-.56,3.81-.89,5.71-.93,5.33-1.59,5.89-7.11,5.8-9.06-.15-18.11-.34-27.17-.54-.85-.02-1.7-.27-3-.89,6.71-.36,5.88-4.9,5.87-9.03-.04-13.34-.04-26.68-.05-40.02q0-5.15-5.22-6.31c-.49-.11-.94-.38-1.31-1.25h21.13c-.19.47-.22.82-.35.85-6.02,1.7-5.97,1.69-5.94,8,.05,11.71.01,23.43.07,35.14,0,1.84-.13,3.89.61,5.46.73,1.55,2.37,3.56,3.81,3.74,4.09.49,8.32.5,12.4-.03,1.63-.21,3.1-2.27,4.44-3.68.83-.88,1.26-2.12,1.87-3.2.29.08.58.16.86.24Z"/>
  <path class="cls-1" d="m837.22,587.43c-.4-.81-.83-1.62-1.2-2.44-2.69-5.88-10.33-8.14-15.84-4.68-4.44,2.79-5.6,7.48-2.36,11.6,2.27,2.88,5.2,5.24,7.92,7.76,3.06,2.84,6.49,5.33,9.25,8.42,4.48,5.03,6.3,11.02,3.19,17.36-3.38,6.88-9.42,10.08-17.03,9.97-3-.04-6.03-.54-8.95-1.23-1.28-.3-3.2-1.54-3.3-2.51-.39-3.69-.16-7.44-.16-11.17.38-.02.75-.05,1.13-.07.28.67.76,1.34.79,2.02.43,7.76,6.33,9.72,12.54,9.29,9.5-.67,13.24-8.65,7.6-16.34-2.36-3.21-5.79-5.64-8.75-8.4-2.12-1.98-4.31-3.89-6.43-5.87-4.52-4.21-6.84-9.53-4.82-15.35,2.26-6.52,7.6-10.23,14.62-10.62,3.55-.2,7.18.38,10.72.93.88.14,2.2,1.52,2.23,2.36.11,2.94-.26,5.9-.45,8.85-.23.04-.45.08-.68.13Z"/>
  <path class="cls-1" d="m81.6,633.23c5.86-.51,5.91-4.46,5.9-8.39-.06-13.92-.15-27.84-.26-41.77-.02-3.07-1.13-5.18-4.72-5.02-.57.03-1.15-.43-1.64-1.33h20.69c-.04.35-.03.55-.06.56-6.15.95-6.26,5.12-6.1,10.16.39,11.83.16,23.68.35,35.52.1,6.37,1.27,7.4,7.64,7.64,2.09.08,4.19.1,6.26-.11,3.77-.38,7.17-1.39,7.77-5.98.04-.31.32-.61.55-.86.14-.15.4-.18,1.59-.68-.83,3.88-1.09,7.42-2.5,10.42-.51,1.09-3.76,1.23-5.76,1.23-6.39.02-12.79-.25-19.18-.37-3.28-.06-6.57-.01-9.85-.01-.23-.34-.46-.68-.69-1.01Z"/>
  <path class="cls-1" d="m1157.87,633.79h-19.77c0-.07-.05-.44,0-.46,4.39-1.45,4.68-4.72,4.59-8.75-.28-13.46-.39-26.93-.11-40.38.09-4.13-1.39-6.16-5.73-6.71.23-.26.46-.53.69-.79h18.68c-1.01.64-1.42,1.08-1.9,1.18-3.02.65-3.56,2.73-3.54,5.44.11,14.16.11,28.32.18,42.48.03,5.22.66,5.9,5.72,6.78.42.07.81.35,1.22.54l-.05.68Z"/>
  <path class="cls-1" d="m871.92,633.88h-19.29c6.17-2.54,4.8-8.05,4.92-12.58.28-11.14.13-22.29.13-33.43,0-4.49.71-9.4-5.55-11.12h18.3c-.08.37-.12.75-.18.75-4.81.31-5.11,3.55-5.07,7.33.11,12.42.03,24.84.09,37.27.03,5-1.31,10.92,7.54,10.81-.3.32-.59.64-.89.97Z"/>
</svg>